<svg version="1.1" xmlns="http://www.w3.org/2000/svg" x="0px" y="0px" width="200px" height="200px">
  <!-- background -->
  <rect width="100%" height="100%" fill="#091f3f"/>

  <!-- block M -->
  <path fill="#f2c413" d="M40 21 H 77 L 100 54 L 123 21 H 160 V 46 H 152 V 83 H 160 V 107 H 116 V 83 H 125 V 60 L 100 92 L 75 60 V 83 H 84 V 107 H 40 V 83 H 49 V 46 H 40 L 40 21"/>

  <!-- C -->
  <path fill="#ffffff" d="M77 137 C 77 112, 40 112, 40 137 V 157 C 40 183, 77 183, 77 157 H 65 C 65 170, 51 170, 51 157 V 137 C 51 124, 65 124, 65 137"/>

  <!-- S -->
  <path fill="#ffffff" d="M120 137 C 120 112, 85 112, 85 137 C 85 147, 109 155, 109 163 C 109 170, 97 170, 97 160 H 85 C 85 183, 120 183, 120 160 C 120 150, 98 145, 98 132 C 98 125, 109 125, 109 137"/>

  <!-- E -->
  <path fill="#ffffff" d="M160 120 H 130 V 176 H 160 V 168 H 140 V 152 H 158 V 143 H 140 V 130 H 160"/>
</svg>
