<svg id="Layer_1" data-name="Layer 1" xmlns="http://www.w3.org/2000/svg" viewBox="0 0 192 192"><defs><style>.cls-1{fill:#003649;}.cls-2{fill:#fff;}.cls-3{fill:#f6891f;}</style></defs><title>Mlive Homepage logo</title><path class="cls-1" d="M0,192H192V0H0Z" transform="translate(0 0)"/><path class="cls-2" d="M165.2,114.08v-57c0-13.52-7.22-28.25-28.56-28.25-20.66,0-27.1,12-28.33,13-3.91-8.32-13.51-13-22.52-13C74.25,28.81,65,32.33,58.56,42h-.3V30.91H27.6v83.17H40.77v.08h18.6V69.06c0-8.67,2.74-14.91,10.77-14.91,9.6,0,10.42,7.07,10.42,14.91v45.09h.06l-.06-.08H95l0,.08h17.22V69.06c0-8.67,2.73-14.91,10.78-14.91,9.62,0,10.42,7.07,10.42,14.91v45Z" transform="translate(0 0)"/><polygon class="cls-3" points="27.6 114.08 27.6 114.15 27.6 163.19 59.67 163.19 59.67 152.19 40.76 152.19 40.76 114.15 40.76 114.08 27.6 114.08"/><rect class="cls-3" x="64.96" y="114.08" width="13.22" height="49.11"/><path class="cls-3" d="M80.55,114.08l.06.08,15.54,49h15.52l16.09-49.11h-14l-5.32,19.53c-1.46,5.23-2.85,10.91-4.09,17h-.1a176,176,0,0,0-4.11-17.18L95,114.15l0-.08Z" transform="translate(0 0)"/><polygon class="cls-3" points="146.65 143.36 164.11 143.36 164.11 132.75 146.65 132.75 146.65 124.78 165.22 124.78 165.22 114.08 165.2 114.08 133.46 114.08 133.46 114.15 133.46 163.18 166.24 163.18 166.24 152.38 146.65 152.38 146.65 143.36"/></svg>
